<?xml version="1.0" encoding="utf-8"?>
<!-- Generator: Adobe Illustrator 22.0.1, SVG Export Plug-In . SVG Version: 6.00 Build 0)  -->
<svg version="1.1" id="Layer_1" xmlns="http://www.w3.org/2000/svg" xmlns:xlink="http://www.w3.org/1999/xlink" x="0px" y="0px"
	 viewBox="0 0 220 100" style="enable-background:new 0 0 220 100;" xml:space="preserve">
<style type="text/css">
	.st0{fill:#FFFFFF;}
	.st1{clip-path:url(#SVGID_2_);fill:#E21E2D;}
</style>
<g>
	<path d="M207.2,41.1c0.1,0.4,0,0.8,0,1.2c-0.2,1.1-0.6,2.1-1.2,2.8c-0.1,0.2-0.3,0.3-0.5,0.4c-0.3,0.1-0.4-0.2-0.3-0.5
		c0.1-0.7,0.3-1.3,0.4-2c0-0.2,0-0.5,0.1-0.7c0-0.5-0.1-1-0.1-1.5c0-0.6,0.1-0.8,0.5-0.8C206.6,40.1,207,40.4,207.2,41.1z
		 M209.9,41.1c-0.2-0.7-0.7-1-1.3-1.1c-0.5-0.1-0.6,0.1-0.6,0.8c0,0.5,0.1,1,0.1,1.5c0,0.2,0,0.5-0.1,0.7c-0.1,0.7-0.3,1.3-0.5,2
		c-0.1,0.4,0.1,0.7,0.4,0.5c0.2-0.1,0.4-0.2,0.6-0.4c0.7-0.8,1.1-1.8,1.3-2.8C210,42,210.1,41.6,209.9,41.1z M104.7,28.1
		c0.1,0.2,0.3,0.3,0.5,0.4c0.3,0.1,0.4-0.2,0.3-0.5c-0.1-0.7-0.3-1.3-0.4-2c0-0.2,0-0.5-0.1-0.7c0-0.5,0.1-1,0.1-1.5
		c0-0.6-0.1-0.8-0.5-0.8c-0.5,0.1-0.9,0.4-1.1,1.1c-0.1,0.4,0,0.8,0,1.2C103.7,26.3,104.1,27.3,104.7,28.1z M102.1,28.1
		c0.2,0.2,0.4,0.3,0.6,0.4c0.3,0.1,0.5-0.2,0.4-0.5c-0.2-0.7-0.3-1.3-0.5-2c-0.1-0.2-0.1-0.5-0.1-0.7c0-0.5,0.1-1,0.1-1.5
		c0-0.6-0.1-0.8-0.6-0.8c-0.6,0.1-1,0.4-1.3,1.1c-0.1,0.4,0,0.8,0.1,1.2C101,26.3,101.4,27.3,102.1,28.1z M136.3,33.3
		c0.5,0.2,1.1,0.1,1.7,0c0,0,0.2,0,0.4-0.1c0.1,0,0.2,0,0.3-0.1c-0.8,3.7-1.6,7.3-2.2,11c0,0.1,0,0.3,0,0.3c0,0,0,0.1,0,0.1
		c0,0.1,0,0.3,0.1,0.5c0.1,0.1,0.3,0.3,0.5,0.3c0.2,0.1,0.4,0.1,0.6,0c0.1,0,0.2,0,0.3,0c0,0,0.1,0,0.1,0c0.3,0,0.6-0.2,0.8-0.3
		c0.2-0.1,0.4-0.4,0.5-0.7c0.7-3.5,1.4-7.1,2.2-10.6c0-0.1,0-0.2,0.1-0.4c0.1-0.3,0.1-0.7,0.2-1c0.4-0.1,0.6-0.1,0.9-0.2
		c0.7-0.2,1.8-0.5,2-0.6c0.4-0.1,0.7-0.3,1.1-0.4c0.3-0.1,0.1-0.1,0.3-0.3c0.1-0.1,0.2-0.2,0.1-0.5c0,0,0,0,0-0.1c0,0-0.1,0-0.1,0
		c-0.3-0.1-0.6-0.1-0.9-0.1c-0.2,0-0.9,0.1-1,0.1c-0.3,0-1.1,0.2-1.4,0.2c-0.2,0-0.3,0-0.5,0.1c0.6-3.2,1.5-6.7,2.9-9.7
		c0.3-0.7,0.6-1.5,1.2-2.1c0.5-0.5,1.6-1.3,2.1-0.6c0.3,0.4,0.4,1.2,0.4,1.7c0,0.5,0,1.1-0.1,1.6c-0.1,0.5-0.2,0.9-0.2,1.4
		c0,0.2-0.1,0.8-0.1,1c0,0.3,0.2,0.6,0.5,0.6c0.4,0.1,0.7-0.2,1.1-0.3c0,0,0,0,0,0c0.1-0.1,0.2-0.1,0.3-0.2c0.1-0.1,0.3-0.2,0.4-0.4
		c0.1-0.1,0.2-0.2,0.2-0.3c0.1-0.2,0.1-0.4,0.2-0.6c0-0.2,0.1-0.3,0.1-0.5c0.1-0.3,0.1-0.7,0.1-1c0-0.7-0.1-1.4-0.3-2
		c-0.2-0.5-0.5-1-0.9-1.4c-1.3-1.2-3.3-1.2-5-0.3c-2,1.1-2.8,3.2-3.5,5.2c-1.1,2.9-1.7,5.4-2.4,8.4c-0.1,0-0.1,0-0.2,0
		c-0.7,0.1-1.1,0.2-1.9,0.3c-0.2,0-0.5,0.1-0.7,0.1c-0.2,0-0.2,0-0.5,0.1c-0.3,0-0.6,0-0.9,0.1c-0.2,0-0.3,0.2-0.3,0.4
		c0,0.2,0.1,0.3,0.2,0.4C135.2,32.8,135.7,33.1,136.3,33.3z M203,43.8c0,0.1,0,0.1,0,0.2c-0.1,0.4-0.1,0.8-0.2,1.2
		c-0.1,0.2-0.2,0.4-0.2,0.6c-0.1,0.2-0.1,0.4-0.2,0.6c-0.3,1.1-0.6,2.3-0.8,3.4c-0.7,3.2-1.5,6.4-2.2,9.6c-0.2,1-0.8,3.1-0.8,4.1
		c0,0.1,0,0.1,0,0.2c-0.1,0.8-0.1,1.5,0.1,2.5c0,0.2,0.2,0.5,0.3,0.6c0.1,0.2,0.3,0.4,0.6,0.5c0.3,0.2,0.6,0.2,1,0.2
		c0.2,0,0.3-0.1,0.5-0.1c0.2,0,0.3-0.1,0.5-0.2c0.1-0.1,0.3-0.2,0.4-0.2c0.2-0.1,0.4-0.3,0.5-0.5c0.2-0.2,0.3-0.4,0.4-0.6
		c0,0,0,0,0,0c0,0,0.1-0.1,0.1-0.1c0,0,0,0,0,0c0,0,0,0,0.1,0c0,0,0,0,0,0c0,0,0,0,0,0c0,0.1,0,0.1,0,0.2c0,0.1,0,0.1,0,0.2
		c0,0.2,0,0.3-0.1,0.4c-0.1,0.4-0.3,0.7-0.6,1c-0.1,0.1-0.1,0.2-0.2,0.2c-0.3,0.3-0.6,0.5-0.9,0.6c-0.3,0.2-0.7,0.3-1.1,0.3
		c-0.7,0.1-1.4-0.1-2-0.5c-0.8-0.6-1.4-1.5-1.6-2.5c-0.1-0.2-0.1-0.4-0.1-0.6c-0.4,0.8-0.6,1.1-0.9,1.9c-0.9,1.4-1.7,2.2-2.5,2.2
		c-0.8,0.1-2.1-0.2-2.9-0.7c-0.8-0.6-1.4-1.2-1.6-2c-0.4-1.4-0.3-3.5-0.1-5c-0.4,0.5-1,1-1.7,1.1c-0.3,0-0.6-0.1-0.8-0.2
		c0.1,0-0.5,2-0.6,2.2c0,0,0,0.1,0,0.1c-0.4,1.3-0.9,2.6-1.8,3.8c-0.7,1-1.7,1.8-2.9,2c-1,0.2-2.7,0.4-3.6-0.2
		c-1.1-0.6-1.3-1.4-1.4-2.2c-0.2-1.2,0.2-4,0.6-5.6c-0.6,0.7-1.5,1.3-2.3,1.3c0,0-0.3,1.4-0.4,1.5c-0.2,0.6-0.4,1.1-0.7,1.7
		c-0.5,1.1-1.1,2.2-2,3.1c-0.5,0.6-1.1,1.1-1.8,1.5c-0.8,0.4-1.6,0.4-2.3,0.3c-0.6-0.1-1.3-0.2-1.8-0.5c-1-0.5-1.6-1.3-1.8-2.1
		c-0.4-2,0.1-4.9,1.2-7.6c1.3-3.1,2.9-4.8,4.8-5c0.3,0,1.4,0.2,2.3,0.7c0.4,0.2,0.7,0.4,0.9,0.6c0.4,0,0.7,0.3,0.9,0.6
		c0.5,0.6,0.8,1.5,0.9,2.3c0,0.1,0,1.4,0,1.4c0.4,0,1.2-0.4,2.4-1.5c0,0,0,0,0.1,0c0.1-0.3,0.2-0.6,0.3-1c0.4-1,0.8-1.8,1.5-2.7
		c0.6-0.7,1.3-1.2,2.2-1.4c0.6-0.1,1.6,0,2.1,0.2c0.7,0.3,1.2,0.4,1.8,0.8c1.2,0.7,1.5,1.5,1.5,3c0,0.1,0.1,0.3-0.1,1.3
		c0.1,0,0.6,0.1,1.1-0.1c1-0.5,1.3-1,1.7-1.4c0.3-1.1,0.7-2.1,1.1-3c0.7-1.4,1.8-3.2,3.5-3.3c0.6-0.1,1.3,0.1,2,0.6
		c0.1,0,0.2,0.1,0.4,0.2c0.4,0.2,1,0.5,1.5,0.9c0.1-0.5,0.2-1,0.3-1.4c0-0.2,0.1-0.3,0.1-0.5c0-0.2,0.1-0.3,0.1-0.5
		c0.1-0.3,0.1-0.6,0.2-1c0.1-0.6,0.2-1.3,0.4-1.9c0.2-0.8,0.3-1.7,0.5-2.5c0.1-0.8,0.2-1.6,0.4-2.4c0.1-0.5,0.2-1,0.2-1.4
		c0-0.3,0.1-0.6,0.3-0.8c0.1-0.2,0.3-0.2,0.6-0.2c0.3,0.1,0.6,0.2,0.8,0.3c0.1,0,0.1,0.1,0.2,0.1c0.3,0.1,0.6,0.2,0.8,0.4
		C202.6,43.4,202.9,43.6,203,43.8z M172.2,62.9c-1.3-2.5-1-3.3-1-3.4c0,0,0-0.1,0.1-0.2c-0.1-0.1-0.2-0.2-0.3-0.3
		c-0.3-0.2-0.5-0.3-0.6-0.3c-1.3,0.1-2.5,1.6-3.5,4.2c-0.9,2.4-1.3,5.3-1,6.8c0.1,0.4,0.3,0.7,0.6,1c0.2,0.2,0.5,0.3,0.7,0.3
		c0.9,0.1,1.8-0.8,2.3-1.4c1-1.1,1.6-2.4,2.1-3.7c0.2-0.5,0.3-0.9,0.4-1.4c0.1-0.4,0.2-0.9,0.3-1.3C172.2,63.1,172.2,63,172.2,62.9z
		 M184.4,61.6c0,0-0.6-0.9-0.8-1.2c-0.3-0.6-0.5-1.3-0.3-2c0.1-0.2,0.1-0.4,0.2-0.6c0-0.1,0.1-0.3,0.1-0.3c-0.2-0.1-0.4-0.1-0.6-0.2
		c-0.4-0.1-0.7-0.1-1.1,0.1c-0.3,0.2-0.6,0.4-0.9,0.7c-0.4,0.4-0.6,0.9-0.9,1.4c-1.1,1.8-1.7,4.3-1.9,6.3c-0.1,1-0.3,2.7,0.4,3.4
		c0.3,0.3,0.8,0.4,1.2,0.3c1.2-0.3,1.8-1.1,2.5-2.2c0.8-1.2,1.6-4.3,1.9-5C184.4,62,184.4,61.6,184.4,61.6z M197.2,56.4
		c-1.4-1.1-2.1-1.3-2.4-1.3c-1.1,0.1-2.1,1.7-3,4.9c-0.9,3-1.1,5.9-0.8,7.2c0.2,0.7,0.6,1,1.3,0.9c1-0.1,2.1-2,3.3-5c0,0,0,0,0,0
		C196.6,60.5,197.1,58,197.2,56.4z M162.9,58.8c0.3,0.2,0,1-0.1,1.3c-0.1,0.2-0.1,0.4-0.2,0.6c-0.7,2.6-1.3,5.1-1.9,7.7
		c-0.5,2.4-1.2,4.8-1.8,7.2c-0.8,3.1-2.5,7.5-6.1,7.6c-1.6,0-3.2-1.6-3.9-3.2c-0.2-0.4-0.3-1-0.3-1.5c0-0.2,0.1-0.4,0.3-0.5
		c0.2,0,0.7,0.2,0.9,0.3c0.3,0.1,0.6,0.2,0.4,0.6c-0.3,0.8-0.2,1.5,0.3,2.2c0.4,0.5,1,1.2,1.8,1c0.5-0.1,0.9-0.4,1.3-0.8
		c1.5-1.3,2.3-3.2,2.8-5.1c0.4-1.7,0.8-3.4,1.2-5.1c-0.3,0.3-0.6,0.6-0.9,0.9c-0.8,0.7-2,1.3-3,1.2c-1-0.1-1.7-0.8-2.2-1.6
		c-1.4-2.4-0.7-5.7,0.5-8.3c1-2.2,3.3-5.4,5.8-4.9c0.9,0.2,1.8,0.6,2.2,1.5c0,0,0,0.1,0,0.1c0.1-0.3,0.1-0.6,0.2-0.8
		c0-0.1,0.1-0.7,0.2-0.8c0.1-0.1,0.4-0.2,0.5-0.1c0.1,0,0.3,0,0.4,0.1c0.2,0,0.4,0.2,0.6,0.2c0.2,0.1,0.2,0.1,0.3,0.1
		c0.1,0,0.2,0.1,0.2,0.2C162.7,58.7,162.8,58.8,162.9,58.8z M159.9,60.8c-0.1-0.2-0.2-0.4-0.2-0.5c-0.9-1.1-2.4-0.3-3.4,0.6
		c-1.1,1-1.8,3.1-2.3,4.5c-0.5,1.6-0.7,3.2-0.5,4.8c0,0.3,0.1,0.6,0.3,0.9c0.6,1,2.1,0.6,2.9,0c0.5-0.3,0.9-0.8,1.3-1.3
		c0,0,0-0.1,0-0.1C158.6,66.7,159.3,63.8,159.9,60.8z M150.5,25.8c-0.6,0-1.1,0.5-1.4,1c-0.1,0.1-0.1,0.2-0.2,0.3
		c-0.1,0.4,0,0.6,0.2,0.9c0.1,0.2,0.2,0.4,0.4,0.5c0.2,0.2,0.4,0.2,0.6,0.3c0.3,0.1,0.6-0.2,0.8-0.4c0.3-0.2,0.5-0.4,0.7-0.7
		c0.1-0.2,0.3-0.4,0.3-0.7c0.1-0.4-0.2-0.7-0.5-0.9c-0.1-0.1-0.2-0.1-0.3-0.2C150.9,25.9,150.7,25.8,150.5,25.8z M178.6,30.1
		c1.3-3.1,2.6-4.7,3.9-4.8c0.4,0,1.2,0.3,2.4,1c0.6,0.4,2.1,1.3,2.2,1.9c0.4,1.5-0.4,3.1-2.4,4.7c-1.8,1.4-3.5,2.5-5,2.6
		c-0.2,0.5-0.2,1,0,1.6c0.2,0.8,1,1.3,1.8,1.5c0.3,0.1,0.6,0,0.9,0c1.1-0.1,2.3-0.5,3.2-1.1c1-0.6,1.6-1.2,2.4-2.1
		c0.1-0.2,0.2-0.2,0.2-0.2s1.5-6.8,1.9-7.9c0.2-0.7,0.4-1.5,0.7-2.2c0-0.1,0.1-0.2,0.2-0.3c0,0,0,0,0-0.1c0,0,0,0,0.1,0
		c0.1,0,0.2,0,0.2,0c0.1,0,0.1,0,0.2,0.1c0.1,0,0.2,0.1,0.3,0.1c0.3,0.2,1.3,0.6,1.4,0.9c0,0.1-0.1,0.3-0.1,0.5
		c-0.2,0.7-0.5,0.7-0.7,1.4c0,0.2,0,0.3-0.1,0.4c0.4-0.5,0.8-1.1,1.2-1.5c1-1.1,2.4-2.3,3.9-1.9c1.4,0.4,1.5,1.9,1.1,3.2
		c-0.3,1.1-0.6,2.5-1.6,3c-0.3,0.2-1.9,0.5-1.7-0.4c0.2-1.1,0.8-1.5,1.1-2.6c0.2-0.7,0.4-2-0.6-1.6c-1.2,0.5-2.1,1.4-2.8,2.5
		c-0.4,0.5-0.7,1-1,1.6c-0.2,0.4-0.4,0.9-0.6,1.4c-0.3,0.8-0.4,0.9-0.5,1.3c-0.1,0.5-0.4,1.8-0.5,2.4c-0.1,0.6-0.4,1.5-0.5,1.8
		c0,0,0,0.1,0,0.1c0,0.3-0.1,0.5-0.2,0.8c-0.1,0.2-0.1,0.4-0.2,0.5c-0.1,0.2-0.2,0.3-0.3,0.5c-0.2,0.3-1,0.1-1.2,0.1
		c-0.1,0-0.1,0-0.2-0.1c-0.1,0-0.1-0.1-0.1-0.2c-0.1-0.1-0.1-0.3-0.2-0.4c-0.1-0.1-0.1-0.2-0.1-0.3c0-0.2,0.3-1.2,0.4-1.5
		c-1,1.1-2,2-3.3,2.6c-2,1-4.4,1-6.1-0.3c-0.7-0.5-1.1-1.4-1.3-2.2C176.9,35.2,177.4,33,178.6,30.1z M180.3,33.2
		c0.2,0.1,0.3,0.1,0.5,0.1c1-0.1,2.1-0.7,3.2-1.8c1.1-1.1,1.6-2.1,1.4-3c-0.1-0.3-0.2-0.5-0.5-0.7c-0.2-0.2-0.5-0.3-0.7-0.3
		c-0.8,0.1-1.7,0.9-2.5,2.3C181.1,30.8,180.6,32,180.3,33.2z M151.3,41.5c0.2-0.2,0.5-0.5,0.6-0.7c0,0,0.1-0.1,0.1-0.2
		c0.2-1.4,0.3-2,0.5-3.4c0.4-2.3,1-4.5,1.4-6.7c0-0.3,0-0.6,0-0.8c0-0.3,0.1-0.6,0.4-0.7c0.2-0.1,0.5-0.1,0.7,0
		c0.4,0.1,0.8,0.2,1.1,0.3c0.2,0,0.4,0.1,0.4,0.3c0.1,0.1,0,0.3,0,0.4c-0.4,1.3-0.8,2.8-1.2,4.1c1.1-1.9,1.4-2.4,2.1-3.3
		c0.7-0.9,1.6-1.8,2.6-2.3c1-0.5,2.2-0.5,2.9,0.2c0.6,0.5,0.8,1.3,0.7,2.1c0,0.8-0.3,1.6-0.5,2.4c-0.4,1.5-0.8,3-1.1,4.6
		c-0.2,0.7-0.2,1.5,0,2.2c0.5,1.5,2.2,1,3.2,0.2c0.2-0.2,0.4-0.4,0.5-0.6c-1.3-2.4-0.6-5.6,0.6-8.2c1-2.2,3.3-5.3,5.8-4.9
		c0.9,0.2,1.8,0.6,2.2,1.5c0,0,0,0.1,0,0.1c0.1-0.3,0.1-0.6,0.2-0.8c0-0.1,0.1-0.8,0.3-0.9c0.3-0.2,0.8-0.1,0.9-0.1
		c0.4,0.1,0.8,0.4,1.2,0.5c0.1,0,0.1,0,0.1,0c0.1,0,0.2,0.1,0.3,0.2c0.3,0.2-0.3,1.6-0.4,1.9c-0.1,0.2-0.1,0.4-0.2,0.5
		c-0.7,2.6-1.2,4.5-1.8,7.1c-0.5,2.4-1.2,4.8-1.9,7.1c-0.8,3.1-2.4,7.5-6,7.5c-1.7,0-3.2-1.6-3.6-3.3c-0.1-0.4-0.4-1.1-0.1-1.4
		c0.1-0.2,0.5-0.6,0.9-0.5c0.1,0,0.4,0.3,0.5,0.4c0.4,0.5,0.2,1.2,0.1,1.7c-0.1,0.5,0,1.3,0.3,1.6c0.3,0.4,0.8,0.5,1.3,0.4
		c0.5-0.1,0.9-0.4,1.3-0.8c0.5-0.4,0.9-0.9,1.2-1.5c1.3-2,1.8-4.2,2.3-6.5c0.2-0.7,0.3-1.4,0.5-2.2c-0.3,0.3-0.6,0.6-0.9,0.9
		c-0.8,0.7-2,1.3-3,1.2c-0.8-0.1-1.4-0.5-1.9-1.1c-0.4,0.5-0.9,1-1.5,1.3c-0.6,0.3-1.7,0.6-2.4,0.6c-0.2,0-0.3,0-0.5,0
		c-0.6,0-1.2-0.1-1.6-0.4c-0.7-0.5-1-1.4-1-2.3c0-0.9,0.3-2.4,0.5-3.3c0.5-2,1-4.2,1.4-6.2c-2,0.6-3.3,2.5-4.3,4.4
		c-1,2-1.9,4.7-2.4,6.9c-0.1,0.5-0.3,1-0.4,1.4c-0.1,0.3-0.3,0.5-0.6,0.5c-0.4,0-0.6,0.1-1,0.1c-0.3,0-0.6,0.1-0.7-0.2
		c0-0.1,0-0.2,0-0.3c0-0.2,0.1-0.5,0.1-0.7c-0.3,0.4-0.6,0.8-1.1,1.1c-0.6,0.3-1.2,0.5-1.8,0.5c-1.1,0-2-0.3-2.6-1.3
		c-0.3-0.6-0.4-1.3-0.4-2c0-1.2,0.3-2.4,0.5-3.5c1-3.8,1.1-4.5,1.1-4.5c0.2-0.6,0.2-0.9,0.4-1.6c0.1-0.3,0.7-0.4,0.9-0.4
		c0.6,0,0.8,0,1.3,0.2c0.3,0.2,0.5,0.5,0.6,0.9c0,0.1-0.3,0.5-0.5,1.1c-0.3,0.8-0.7,1.8-1.3,4.1c-0.2,0.6-0.3,1.2-0.4,1.7
		c-0.1,0.6-0.2,1.2-0.2,1.8c0,0.8,0.2,2,1.1,2.3C150.2,42.5,150.7,42,151.3,41.5z M167.8,38.1c0,0.3,0.1,0.6,0.3,0.9
		c0.6,1,2.1,0.6,2.9,0c0.5-0.3,0.9-0.8,1.3-1.3c0.3-1.3,0.6-2.7,0.9-4c0.4-1.7,0.7-3.3,1.1-5c-0.1-0.2-0.2-0.4-0.2-0.5
		c-0.9-1.1-2.4-0.3-3.4,0.6c-1.1,1-1.8,3.1-2.3,4.5C167.8,34.9,167.6,36.6,167.8,38.1z M119.5,43.1c-0.1,0.1-0.1,0.3-0.1,0.4
		c0,0.1,0,0.1,0,0.1c0,0.2,0,0.4,0,0.5c0,0.2,0.1,0.4,0.2,0.6c0.5,1.2,1.7,2.1,3.2,2.2c1.9,0.1,4-0.8,4.5-2.9
		c0.2-0.8,0.2-1.7-0.1-2.5c-0.2-0.8-0.8-1.4-1.3-1.9c-0.9-1.1-2.3-2-1.9-3.6c0.3-1.3,1.8-2.4,3-1.4c0.3,0.3,0.4,0.7,0.3,1.2
		c-0.1,0.4-0.3,0.9-0.6,1.2c-0.1,0.1-0.3,0.2-0.4,0.4c-0.1,0.1-0.2,0.1-0.2,0.2c0,0.1,0.2,0.2,0.3,0.3c0.1,0,0.2,0,0.3,0
		c0.2,0,0.4,0,0.6-0.1c0.2-0.1,0.4-0.1,0.6-0.3c0.2-0.2,0.4-0.4,0.5-0.6c0.7-1.3,0.2-2.7-0.9-3.4c0,0-0.1-0.1-0.1-0.1
		c-1.7-0.9-3.9-0.2-5.1,1.4c-0.5,0.7-0.8,1.5-0.7,2.3c0.1,0.9,0.4,1.6,0.9,2.3c0.5,0.9,1.2,1.7,1.8,2.5c0.6,0.9,1.2,2,0.6,3.1
		c-1.1,1.8-3.6,1-4.3-0.4c-0.1-0.2-0.3-0.6-0.3-0.9c0-0.2,0-0.3-0.1-0.4c0-0.1,0-0.2-0.1-0.2c-0.1,0-0.1,0-0.2,0
		C119.6,43.1,119.5,43.1,119.5,43.1z M121.6,32.8c0.2,0,0.4-0.2,0.6-0.4c0.2-0.2,0.3-0.4,0.5-0.7c0.1-0.2,0.3-0.4,0.4-0.6
		c0,0,0.1-0.1,0.1-0.1c0.1-0.2,0.3-0.5,0.4-0.7c0.2-0.5,0.3-1.1,0.4-1.6c0-0.2,0-0.4,0-0.6c0,0,0,0,0,0c0-0.4-0.1-0.7-0.3-1
		c-0.2-0.3-0.5-0.3-0.8-0.3c-0.7,0.2-1,0.8-0.9,1.5c0,0.3,0.2,0.5,0.3,0.8c0.1,0.3,0.1,0.6,0,0.9c-0.1,0.6-0.2,1.1-0.4,1.7
		c-0.1,0.2-0.2,0.5-0.3,0.7c-0.1,0.1-0.1,0.3,0,0.4C121.4,32.7,121.5,32.8,121.6,32.8z M107.3,33.7c0.1,0.2,0.2,0.3,0.4,0.4
		c0,0,0,0,0,0c0.2,0.2,0.4,0.2,0.5,0.2c0,0,0,0,0,0c0,0,0,0,0.1,0c0.8-0.4,0.8-0.5,1.3-1.1c0,0,0,0,0,0c0.2-0.2,0.3-0.5,0.3-0.8
		c0-0.1,0-0.1,0-0.2c-0.1-0.2-0.1-0.3-0.2-0.4c0,0-0.1-0.1-0.1-0.1c-0.1-0.1-0.3-0.2-0.4-0.3c-0.1,0-0.1-0.1-0.2-0.1c0,0,0,0,0,0
		c0,0-0.1,0-0.1-0.1c-0.1,0-0.1,0-0.2-0.1c-0.1-0.1-0.3-0.1-0.5-0.1c-0.1,0-0.2,0-0.3,0.1c-0.2,0.2-0.5,0.5-0.6,0.6
		c-0.1,0.1-0.1,0.1-0.2,0.2c0,0,0,0-0.1,0.1c0,0-0.1,0.1-0.1,0.2c-0.2,0.7-0.2,0.8,0.2,1.3C107.2,33.6,107.3,33.6,107.3,33.7z
		 M104.9,48.1c0.2,0.2,0.4,0.3,0.6,0.4c0.5,0.2,0.9,0.3,1.5,0.3c0.7,0,1.9-0.2,2.5-0.5c0.6-0.3,1.5-0.9,1.9-1.4c0,0,0.2,0.4,0.2,0.4
		c0.1,0.1,0.2,0.2,0.3,0.3c0.3,0.2,0.6,0.3,0.9,0.4c0.4,0.1,0.9,0.1,1.3,0.1c0.5,0,1.1-0.1,1.6-0.3c0.7-0.3,1.4-0.9,1.8-1.5
		c0.1-0.1,0.1-0.2,0.2-0.4c0.1-0.1,0.1-0.3,0.1-0.4c0-0.1,0-0.1,0-0.2c0-0.1-0.1-0.1-0.1-0.2c0-0.1,0-0.1,0-0.2c0,0,0-0.1,0-0.1
		c-0.1,0-0.1,0.1-0.1,0.1c0,0.1-0.1,0.1-0.1,0.2c-0.1,0.1-0.1,0.2-0.2,0.3c-0.2,0.3-0.4,0.5-0.7,0.7c-0.4,0.4-1,0.7-1.6,0.8
		c-0.7,0.1-1.3-0.3-1.4-0.9c-0.1-0.3,0-1.1,0-1.1c0.2-1.4,0.5-2.8,0.8-4.2c0.2-0.7,0.5-2.5,0.7-3.2c0-0.2,0.4-1.7,0.5-1.7
		c0.4-0.1,0.9-0.1,1.2-0.2c0.4,0,0.6-0.1,0.8-0.1c0.3,0,0.4,0,0.8,0c0,0,0.1,0,0.1,0c0.2,0,0.5,0,0.8-0.2c0.1-0.1,0.1-0.1,0.1-0.2
		c0,0,0,0,0,0c0.1-0.1,0.1-0.1,0.1-0.2c0.1-0.1,0-0.1,0.1-0.2c0,0,0-0.1,0-0.1c0-0.4-0.1-0.5-0.4-0.6c0,0-0.1,0-0.1,0
		c-0.2-0.1-0.2-0.2-0.3-0.2c-0.1-0.1-0.3-0.1-0.5-0.1c-0.4,0-0.7,0-1.1,0c-0.2,0-0.4,0.1-0.6,0.1c-0.1,0-0.6,0.1-0.6,0.1
		c0.1-0.4,0.3-0.9,0.9-2.7c0.2-0.8,0.4-1.4,0.6-1.8c0.1-0.4,0.3-0.7,0.3-1.1c0-0.3-0.1-0.6-0.4-0.8c-0.1,0-0.1-0.1-0.2-0.1
		c-0.2-0.1-0.4-0.1-0.6-0.1c-0.2,0-0.5-0.1-0.7-0.1c-0.1,0-0.2,0-0.3,0c-0.1,0-0.2,0-0.2,0c0,0-0.1,0-0.1,0c0,0,0,0-0.1,0
		c-0.1,0-0.1,0.1-0.2,0.2c-0.1,0.1-0.1,0.2-0.1,0.3c0,0.1,0,0.1,0,0.2c0,0.1,0,0.1,0,0.2c-0.1,0.3-0.2,0.7-0.4,1
		c-0.2,0.5-0.3,0.9-0.4,1.4c-0.2,0.6-0.4,1.2-0.6,1.8c-0.1,0.3-0.2,0.7-0.3,1c0,0.2-0.1,0.3-0.1,0.5c0,0.1-0.1,0.2-0.1,0.3
		c0,0-0.1,0.3-0.1,0.3c-0.1,0-0.1,0-0.1,0c-2,0.7-2.2,0.9-2.2,1.1c0,0,0,0,0,0.1c0,0.1,0,0.1-0.1,0.1c0,0.1,0.1,0.1,0.3,0.2
		c0.1,0,0.2,0.1,0.4,0.1c0.3,0,0.6,0,0.8,0c0,0,0.1,0,0.1,0c0.1,0,0.2,0,0.4,0c-0.2,1.3-0.8,2.7-1,4.1c-0.2,1.2-0.5,2.4-0.6,3.6
		c-0.1,0.6-0.1,1.3,0.1,2c-0.3,0.6-1,1.1-1.6,1.4c-0.5,0.3-1.4,0.5-2,0.3c-1.4-0.4-1.1-2.5-0.9-3.7c0.1-1.1,0.3-2.2,0.6-3.3
		c0.3-0.9,0.5-1.8,0.9-2.6c0.1-0.1,0.2-0.2,0.2-0.3c0.1-0.1,0.3-0.2,0.4-0.4c0.2-0.3,0-0.7-0.2-1c-0.5-0.5-1.2-0.8-1.9-0.6
		c-0.3,0-0.6,0.2-0.8,0.4c-0.2,0.2-0.3,0.6-0.3,0.9c-0.4,2.2-1.1,4.3-1.4,6.5C103.8,45,103.7,47,104.9,48.1z M102.1,61.6
		c-0.4,0.1-0.8,0.4-1.1,0.7c-0.1,0.1-0.3,0.3-0.3,0.5c-0.1,0.4,0.1,0.8,0.2,1.2c0.1,0.2,0.2,0.4,0.4,0.6c0.5,0.4,1.3,0.4,1.8-0.1
		c0.1-0.2,0.3-0.4,0.3-0.6c0.1-0.3,0.1-0.5,0.2-0.9c0,0,0,0,0-0.1c-0.1-0.4-0.3-0.8-0.6-1.1C102.9,61.4,102.5,61.5,102.1,61.6z
		 M129.5,61.5c0.2,0.1,0.4,0.2,0.7,0.2c0.2,0,0.4,0,0.5,0c0.2,0,0.4,0,0.5-0.1c0.3-0.1,0.6-0.3,0.7-0.6c0-0.1,0.1-0.2,0.1-0.2
		c0-0.1,0.1-0.1,0.1-0.2c0.2-0.4-0.1-1-0.4-1.3c-0.3-0.2-0.4-0.3-0.7-0.5c0,0,0,0-0.1,0c-0.4-0.1-0.9,0-1.3,0.2
		c-0.4,0.1-0.5,0.6-0.6,1c-0.1,0.4-0.1,0.9,0.1,1.2C129.4,61.3,129.4,61.4,129.5,61.5z M145.3,72.7c0,0.5-0.5,1.4-0.7,1.6
		c-0.5,0.5-1,0.7-1.6,0.8c-0.5,0.1-1.4,0-1.9-0.3c-0.5-0.3-0.8-0.7-1-1.3c-0.3-1.2-0.1-3.9,0.5-6.5c0.2-0.8,0.4-1.6,0.5-2.4
		c0.1-0.4,0.2-0.7,0.2-1.1c0-0.2,0.1-0.5,0-0.6c0,0-0.1,0-0.2,0c-0.3,0.1-0.5,0.3-0.8,0.4c-0.3,0.2-0.6,0.4-0.9,0.7
		c-1,0.9-1.8,2.1-2.4,3.3c-0.8,1.7-1.3,3.5-1.7,5.3c0,0.2-0.1,0.2-0.1,0.4c-0.1,0.7-0.3,1.6-0.6,2.5c-0.2,0.5-1.4,0.6-1.4,0.6
		c-0.2,0-0.3-0.1-0.4-0.3c-0.1-0.1-0.1-0.3-0.2-0.5c0-0.1,0-0.2-0.1-0.2c0,0,0,0,0-0.1c-0.6,1-1.8,1.4-2.9,1.4c-0.1,0-0.1,0-0.2,0
		c-0.4,0-0.8,0-1.2-0.2c-0.1,0-0.2-0.1-0.3-0.1c-0.1-0.1-0.3-0.1-0.4-0.2c-0.1-0.1-0.4-0.5-0.5-0.6c0,0,0,0,0,0
		c-0.3,0.4-0.8,0.9-1.2,1.2c-1.2,0.7-2.4,0.9-3.7,0.5c-1-0.3-1.9-0.8-2.5-1.6c-0.3-0.3-0.5-0.7-0.7-1.1c-0.2-0.4-0.4-0.9-0.7-1.2
		c-0.1-0.1-0.2-0.2-0.4-0.3c-0.1,0-1,0.3-1.6,0.4c-0.1,0.7-0.3,1.5-0.5,2.2c-0.2,0.6-0.4,2.6-1.2,2.7c-0.2,0-0.4,0.1-0.6-0.1
		c-0.1-0.8,0.1-2.1,0.2-2.9c0-0.1,0-0.1,0-0.2c-0.9,1.7-2.5,3.4-4.2,3.9c-1.5,0.5-3.8,0.3-4.9-0.7c-0.2-0.1-0.3-0.3-0.5-0.5
		c-0.4,0.5-0.9,1-1.5,1.3c-0.6,0.3-1.5,0.5-2.2,0.5c-0.3,0-0.5,0-0.8,0c-0.3,0-0.7-0.1-1-0.3c-0.3-0.1-0.5-0.2-0.7-0.5
		c-0.2-0.2-0.3-0.4-0.5-0.6c-1.3,1.8-4.5,2.7-6.2,1.3c-1-0.8-1.1-2-1-3.3c0.1-1.8,0.4-3.6,0.7-5.3c0.6-3.4,1.4-6.9,2.3-10.2
		c0.4-1.4,0.8-2.9,1.2-4.3c0.3-1,0.7-2.3,0.6-3.3c-0.1-0.5,0.7-0.4,1-0.5c0.9-0.1,2.2-0.3,2.4,0.9c0.2,1.1-0.4,2.3-0.8,3.3
		c-0.4,1.2-0.8,2.4-1.2,3.7c-0.8,2.4-1.5,4.9-2.1,7.4c-0.5,2-0.8,3.2-1.2,5.2c-0.3,1.6-0.9,4.1,0.2,5.4c0.7,1,2,0.4,2.9-0.3
		c0.3-0.2,0.5-0.5,0.7-0.7c0-0.1,0.1-0.1,0.2-0.2c-0.1-0.4-0.1-0.8-0.1-1.2c0-0.8,0.1-1.9,0.5-3.4c0.6-2.3,0.8-3.5,1.4-5.8
		c0-0.2,0.1-0.5,0.1-0.7c0-0.1,0.4-0.1,0.5-0.2c0.6-0.1,1.1,0,1.8,0.2c0.1,0,0.3,0.1,0.4,0.2c0.1,0.1,0.3,0.2,0.3,0.4
		c0.1,0.3-0.2,0.9-0.4,1.5c-0.3,0.8-0.6,1.9-1.3,4.2c-0.4,1.3-0.7,2.8-0.5,4.2c0.1,0.7,0.3,1.5,1,1.7c0.7,0.2,1.7-0.3,2.3-0.8
		c0.2-0.2,0.4-0.4,0.6-0.6c-0.5-0.9-0.7-1.9-0.7-2.9c0-2.4,0.6-4.9,2.1-6.9c0.5-0.6,1-1.1,1.6-1.5c1.6-1.1,4.1-1.1,5.3,0.3
		c0.9,1.1,0.9,3,0,4.3c-0.3,0.4-0.7,0.8-1.2,1c-0.3,0.2-0.8,0.2-1.2,0.3c-0.1,0-0.1,0-0.2,0c0,0,0,0-0.1,0c0,0,0,0,0,0
		c-0.1,0-0.1-0.1,0-0.2c0.5-0.5,0.8-1.1,1-1.8c0.2-0.7,0.4-1.4,0.3-2c-0.3-1.9-1.1-1.8-1.7-1.6c-0.8,0.3-1.7,1.3-2.2,2.3
		c-0.5,1.2-0.9,2.4-1.1,3.7c-0.2,1.2-0.1,2.6,0.3,3.8c0.2,0.6,0.7,1.1,1.2,1.5c0.8,0.6,2.8,0.3,3.7-0.4c1.2-0.9,1.7-1.8,2.3-2.9
		c0,0,0,0,0,0c0.6-1.2,0.8-2.6,1.1-3.9c0.3-1.7,0.6-3.5,0.9-5.2c0.7-3.5,1.4-7,2.2-10.5c0.2-0.9,0.5-1.9,0.7-2.8
		c0.1-0.6,0.1-0.5,0.2-0.8c0.1-0.1,0.2-0.2,0.3-0.2c0,0,0.1,0,0.1,0c0.2,0,0.4,0.2,0.6,0.3c0.4,0.2,1.2,0.6,1.4,1.1
		c0.3,0.6,0,1.4-0.2,2c-0.3,0.9-0.6,1.7-0.9,2.6c-0.9,2.8-1.5,5.5-2.2,8.3c-0.2,0.7-0.4,1.4-0.5,2.2c0,0.1,0,0.3-0.1,0.4
		c0.1-0.2,0.6-0.9,0.7-1.2c0.7-1.1,1.4-2.1,2.6-2.7c0.9-0.5,1.9-0.7,2.8-0.3c0,0,0.1,0,0.1,0c0.3,0.1,0.5,0.3,0.6,0.6
		c1.6,1.9,0.8,5.5-1.3,7c-0.7,0.5-1.6,0.9-2.4,1.2c0,0.1,0.1,0.1,0.1,0.2c0.4,0.8,1,2,1.5,2.7c0.3,0.4,0.7,0.9,1.2,1.1
		c0.5,0.2,1.2,0.3,1.7,0.1c0.7-0.2,1.3-0.7,1.7-1.3c-0.1-0.2-0.1-0.2-0.1-0.4c-0.2-1-0.1-2.1,0-3.1c0.3-2.5,0.8-5.1,1.5-7.6
		c0-0.2,0.1-0.4,0.2-0.5c0.3-0.3,0.7-0.3,1.1-0.3c0.3,0,0.7,0.1,1,0.3c0.3,0.2,0.6,0.4,0.6,0.8c0,0.3-0.1,0.5-0.2,0.8
		c-0.7,1.8-1.1,3.7-1.4,5.6c-0.2,1.3-0.3,2.6,0,3.9c0.1,0.5,0.4,1.1,0.9,1.2c0.4,0.1,0.8-0.1,1.2-0.3c0.4-0.2,0.7-0.5,1-0.9l0-0.2
		c0-0.2,0-0.2,0-0.4c0.1-1.3,0.5-3.9,0.9-6.2c0.5-2.3,0.7-3.4,1.1-4.4c0,0,0,0,0-0.1c0-0.1,0.1-0.3,0.1-0.4c0-0.1,0-0.2,0-0.2
		c0-0.1,0-0.1,0-0.2c0-0.1,0.2-0.8,0.3-0.9c0.1-0.1,0.2-0.1,0.3,0c0,0,0.1,0,0.2,0.1c0.1,0,0.1,0.1,0.2,0.1c0,0,0,0,0.1,0
		c0.1,0,0.2,0.1,0.4,0.1c0.3,0,0.6,0.2,0.8,0.5c0.2,0.3,0.2,0.6,0.1,0.8c-0.1,0.1-0.1,0.2-0.2,0.4c-0.2,0.4-0.4,0.9-0.5,1.3
		c-0.1,0.2-0.1,0.5-0.2,0.8c-0.2,0.8-0.4,1.4-0.5,1.9c0.5-1.1,1.2-2.3,2-3.4c0.9-1.2,2.2-2.2,3.5-2.6c1.2-0.4,2.8,0.2,3.1,1.6
		c0.2,0.7,0,1.2-0.2,1.9c-0.6,2.5-1.3,4.9-1.5,7.5c0,0.7,0,2.1,1,1.9c0.4-0.1,0.8-0.4,1-0.8c0-0.1,0.2-0.5,0.3-0.8
		c0.1-0.1,0.1,0,0.2,0C145.2,72.6,145.3,72.7,145.3,72.7z M122,69.2c0.5-0.8,0.8-1.9,0.7-2.8c0-0.5-0.2-0.9-0.6-1.1
		c-0.4-0.2-0.9,0-1.3,0.2c-1.1,0.6-2.4,2.2-2.9,3.3c-0.5,1-0.9,2-1.2,3.1c0,0.1,0,0.2-0.1,0.3c1.1-0.3,2.2-0.7,2.9-1
		C120.5,70.8,121.4,70.2,122,69.2z M145.9,61c0.2,0.1,0.4-0.2,0.5-0.3c0.2-0.2,0.3-0.4,0.5-0.6c0.1-0.2,0.3-0.3,0.4-0.5
		c0,0,0.1-0.1,0.1-0.1c0.1-0.2,0.3-0.4,0.4-0.7c0.2-0.5,0.3-1,0.4-1.5c0-0.2,0-0.4,0-0.6c0,0,0,0,0,0c0-0.3-0.1-0.7-0.2-1
		c-0.2-0.3-0.5-0.4-0.8-0.3c-0.6,0.1-1,0.7-0.9,1.3c0,0.3,0.2,0.5,0.2,0.8c0.1,0.3,0,0.6,0,0.8c-0.1,0.5-0.2,1-0.4,1.5
		c-0.1,0.2-0.2,0.4-0.3,0.7c-0.1,0.1-0.1,0.3,0,0.4C145.8,60.9,145.9,60.9,145.9,61z"/>
	<g>
		<g>
			<path class="st0" d="M19.3,88.5c-1.6,0-3-1.3-3.2-2.9l-5.6-70.7c-0.1-0.9,0.2-1.8,0.8-2.4c0.6-0.6,1.5-1,2.3-1h70.7
				c0.9,0,1.7,0.4,2.3,1c0.6,0.6,0.9,1.5,0.8,2.4l-5.6,70.7c-0.1,1.6-1.5,2.9-3.2,2.9H19.3z"/>
			<path d="M84.3,12c1.6,0,2.8,1.3,2.7,2.9l-5.6,70.7C81.3,87,80.1,88,78.7,88H19.3c-1.4,0-2.6-1.1-2.7-2.5L11,14.9
				c-0.1-1.6,1.1-2.9,2.7-2.9H84.3 M84.3,11H13.7c-1,0-2,0.4-2.7,1.2c-0.7,0.7-1,1.8-1,2.8l5.6,70.7c0.1,1.9,1.7,3.4,3.6,3.4h59.5
				c1.9,0,3.5-1.5,3.6-3.4L88,14.9c0.1-1-0.3-2-1-2.8C86.3,11.4,85.4,11,84.3,11L84.3,11z"/>
		</g>
		<path d="M65.1,41.8c-0.4,2.2-0.9,3.2-1.2,4.6c-0.3,1.4-0.9,3.4-1.5,3.5c-0.6,0.2-0.8-0.5-1.2,0c-0.2,0.3-0.4,0.7-0.6,0.9
			c-0.1,0.2-0.3,0.5-0.3,0.7c0,0.4,0,1.6-0.4,3.3c-0.5,2.5-1.5,4.3-2.5,5.5c-1.9,2.2-3.7,2.5-3.9,2.7c-0.3,0.1-0.7,0.1-0.8,0
			c-0.1-0.1-0.2-0.2-0.5-0.5c-0.2-0.2-0.3,0.1-0.3,0.2c0,0.1,0.1,1.1-0.1,1.6c-0.6,1-1.1,1.1-1.4,2.4c-0.1,0.4,0,1.1-0.5,0.8
			c-1.2-0.7-3-2.6-3.4-4.5c-0.1-0.6,0-1.2,0.3-2.3c0.2-0.6,0.3-1.3,0.3-1.7c0-0.7-0.3-1.3,0-1.4c0.5-0.1,0.8,1.2,1,1.1
			c0.4-0.2,0.1-1.7,0.1-1.7s-0.2-0.4-0.9-0.6c-0.4-0.1-0.6-0.4-0.1-0.6c0.3-0.2,0.7-0.4,1.2-0.3c3.1,0.4,3.9-0.2,5.2-0.5
			c0.2-0.1,0.4-0.1,0.6,0c0.2,0.1,0.7,0.4,0.8,0.6c0.1,0.3,0,1.3,0.2,2c0.2,0.8,0.7,0.1,0.8-0.2c0.1-0.3,0.3-1,0.3-1.2
			c0-0.2,0.2-1,0.5-1.2c0.6-0.5,0.8-1.1,0.8-1.3c0.1-0.2,0.2-1,0.2-2.1c0-1.1-0.2-1.2-0.5-1.4c-0.3-0.2-0.6-0.2-1.2-0.8
			c-0.6-0.5-1.1-1.4-1.5-1.9c-0.4-0.5-1.1-1.1-1.9-1.3c-0.8-0.2-0.5,0.5-0.4,0.8c0,0.1,0.2,0.8,0,1C52,48,50.4,49.1,49,48.7
			c-1.7-0.4-2.3-1.4-2.3-2.3c0-0.7,0.3-1.3,0.7-2c0.2-0.4,0.3-1.2,0.4-1.9c0.1-0.6,0.2-1.4,0.3-1.7c0.1-0.2,0.3-0.4,0.8-0.4
			c0.5,0,0.8,0.3,0.8,0.7c0.3,1.4,0.8,1.7,1,1.8c0.2,0.1,0.5-0.1,0.6-0.2c0.1-0.1,0.4-0.4,0.3-0.6c-0.1-0.3-0.2-0.4-0.3-0.6
			c-0.1-0.3,0.3-0.2,0.3-0.2c0.5,0.4,1,0.5,2,0.6c1.6,0.3,1.9-0.3,3-0.1c0.1,0,0.4,0.1,0.5,0.3c0.1,0.1,0.2,0.5,0.3,0.5
			c0.1,0.1,0.5,0.1,0.6,0.1c0.2,0,0.7,0,0.6,0.5c-0.2,1.2-1.5,1.5-2.2,1.6c-0.3,0-0.4,0.1-0.4,0.1c-0.1,0.1-0.1,0.5,0,0.7
			c0.1,0.2,0.6,0.2,1.3,0c0.7-0.1,1.4-0.5,2-1.4c0.6-0.9,0.9-2.9,1-3.3c0.1-0.4,0.2-1,0.4-1.1c0.2-0.1,1.2-0.4,1.3-0.4
			c0.2,0,0.3,0.1,0.4,0.5c0.1,0.4-0.1,2.6-0.1,2.9c0,0.4,0.2,0.4,0.3,0.3c0.2-0.1,0.8-0.5,0.9-1c0.1-0.3-0.2-0.8,0-1.3
			c0.2-0.7,0.4-0.9,0.6-0.9C65.1,40.2,65.3,40.6,65.1,41.8 M51.9,53.7c-0.3,0.1-1.3,0.4-1.8,0.4c-0.5,0-2,0.1-2.3,0.1
			c-0.3,0-0.7-0.2-1.1-0.5c-0.1-0.1-0.1-0.3,0.1-0.3c0.5,0,1.4-0.3,4.5,0c0.3,0,0.5,0,0.6,0C52,53.5,52.3,53.6,51.9,53.7 M44.3,52.5
			c-1.5,0-2.2-0.6-2.3-0.7c-0.1-0.2,0.1-0.3,0.2-0.3c0.4-0.1,1-0.4,1.2-0.6c0.3-0.2,1-0.6,1.3-0.9c0.2-0.1,1.1-0.5,1.7-0.1
			c0.8,0.6,1.6,1,3.1,0.9c0.9-0.1,0.9-0.8,1.7-1c0.7-0.2,0.8-0.4,1-0.5c0.3-0.1,0.5-0.1,0.8,0.2c0.4,0.4,0.5,0.6,1,1.1
			c0.6,0.7,1.3,1,1.5,1c0.2,0,0.4,0.2,0.4,0.3c0,0.1-0.1,0.3-0.7,0.5c-2,0.6-4.2,0.2-5.4-0.2c-0.6-0.2-1.1-0.3-1.8,0
			C47.4,52.3,45.7,52.5,44.3,52.5 M43.6,60.8c-1.1,0-4.2-1.8-5.5-6.9c-0.3-1.3,0.5-2.4,1-2.6c0.3-0.1,0.5-0.1,0.6-0.2
			c0.1,0,0.6,0,0.6,0.6c0,0.5,0.4,4.5,1.4,5.9c0.3,0.4,0.5,0.4,0.6,0.1c0.1-0.3,0.3-0.7,0.3-0.8c0-0.1,0.4-0.7,0.5-0.2
			c0.2,0.9,0.8,2.9,1,3.4C44.7,60.8,44,60.8,43.6,60.8 M37.6,45.5c-0.1-0.3,0.1-0.9,0.9-0.3c0.1,0.1,0.5,0.3,0.9,0.4
			c0.3,0.1,0.4,0,0.5-0.2c0.1-0.2,0.3-0.6-0.1-0.7c-0.4-0.2-1.3-0.3-1.8-1.6c-0.1-0.2,0.1-0.5,0.2-0.5c0.1-0.1,0.3,0,0.5,0.1
			c0.2,0.2,0.5,0.5,0.8,0.5c0.3,0,0.3-0.1,0.4-0.2c0.2-0.3,1-1.3,2.4-1.1c0.6,0.1,1.2,0.2,1.4,0.2c0.1,0,0.5,0,0.9,0
			c0.4-0.1,1.1-0.2,0.8,0.2c-0.3,0.3-0.5,0.4-0.3,0.8c0,0,0,0,0,0c0.2,0.3,0.2,0.7,0,1l0,0c-0.3,0.4-1,0.9-2.4,1
			c-0.6,0-0.7,0-0.7,0.4c0,0.1,0,0.2,0,0.3c0,0.2,0.2,0.3,0.6,0.3c0.3,0,0.9,0,0.9,0c0.1,0,0.3,0,0.2,0.2c0,0-0.1,0.1-0.1,0.1
			c-0.3,0.4-0.4,0.8-0.4,1c0,0.2-0.1,0.4-0.3,0.4c0,0,0,0,0,0c-0.2,0.1-1,0.3-1.7,0.8c-0.6,0.5-2,1-2.6,0.3
			C38.3,48,37.8,46.6,37.6,45.5 M37.1,39c-0.2,0-0.3-0.1-0.5-0.1c-0.2,0-0.4,0-0.5-0.1c-0.1-0.1-0.1-0.3,0.1-0.3c0.1,0,0.2,0,0.4,0
			c0.3-0.1,0.6-0.4,0.8,0C37.6,38.6,37.4,39,37.1,39 M34.9,47.2c-0.6-0.4-0.5-0.9-0.7-1.4c-0.3-1.1-0.6-2.3-0.9-3.4
			c-0.2-0.7-0.2-2.2,0.7-2.2c0.4,0,0.8,0.1,0.9,0.6c0.3,0.9-0.3,0.8-0.1,1.9c0.1,0.8,0.3,1.6,0.5,2.9c0.1,0.6,0.3,2.1-0.2,1.7
			 M33.2,32.2c0.3-0.9,0.9-1.6,1.3-2.1c0.4-0.5,0.2-1.1,0-1.7c-0.1-0.5-0.5-1.1-0.5-1.2c0-0.1,0-0.2,0-0.3c0,0,0,0,0.1,0l0.7-0.1
			c2-0.3,3.8-1,4.4-1.3c0.3-0.1,0.5-0.3,0.8-0.4c0.3-0.1,0.7-0.2,1-0.3c0.3,0,0.6-0.1,0.8-0.1c0.4,0,1,0.2,0.9,0.3
			c-0.3,0.2-1.9,0.6-3.3,2.2c-0.9,1-1,1.6-1.3,2.1c-0.3,0.5-0.5,0.6-0.9,0.9c-0.2,0.2-0.6,0.5-0.8,1.1c-0.2,0.6-1,2.6-1.1,5.7
			c0,0.4-0.1,0.8-0.4,0.9c0,0,0,0,0,0c-0.3,0.1-0.5,0.3-0.6,0.1c-0.2-0.7-0.6-2.2-0.8-3.2c-0.1-0.3-0.1-0.6-0.2-0.9
			C33.1,33.3,33.1,32.6,33.2,32.2 M39.4,39.9c-0.4,0.2-0.7,0.5-1,0.7c-0.3,0.2-0.8,0-0.7-0.5c0.1-0.2,0.4-0.8,0.9-0.9
			c0.1,0,0.3-0.1,0.6-0.1c0.3,0,0.5-0.1,0.7-0.1c0.4,0,0.4,0.3,0.2,0.5C39.9,39.6,39.6,39.7,39.4,39.9 M39.9,40.6
			c0.1-0.1,0.1-0.1,0.5-0.3c0.2-0.1,0.5-0.3,0.8-0.5c0.5-0.3,1.4-0.7,1.8-0.7c0.3,0,0.8,0.1,1.1,0.4c0.3,0.3,0.4,0.7,0,0.6
			c-0.4-0.1-0.7-0.2-1.4,0c-0.8,0.2-1.3,0.5-1.7,0.6c-0.4,0.2-0.8,0.2-0.9,0.2C39.9,41.1,39.5,40.9,39.9,40.6 M45.6,47.5
			c0.1,0.2,0.1,0.4,0.1,0.6c0,0.1-0.5,0.3-0.9-0.3c-0.4-0.6-0.2-1.4,0-1.7c0.4-0.5,1-0.1,0.9,0C45.4,46.7,45.6,47.3,45.6,47.5
			 M58.1,41.4c-0.2,0.1-0.7-0.1-0.9-0.2c-0.3-0.2-0.5-0.3-1-0.7c-0.3-0.2-0.8-0.4-1.3-0.3c-0.4,0-0.7,0.1-1,0.2
			c-0.3,0.1-0.3-0.2-0.2-0.3c0.1-0.1,0.5-0.5,1.4-0.7c0.1,0,0.4,0,0.5,0c0.4,0,0.8,0.3,1.1,0.6c0.3,0.3,0.9,0.8,1.3,1.1
			C58.1,41.1,58.4,41.2,58.1,41.4 M57.7,40c0,0-0.5-0.4-0.7-0.7c-0.1-0.1-0.1-0.3,0.2-0.3c0.8,0,1.5,0,1.9,0.3
			c0.3,0.2,0.3,0.7,0.1,1c-0.1,0.3-0.4,0.2-0.6,0.2C58.4,40.5,57.7,40,57.7,40 M61.7,38.8c-0.1,0.1-0.2,0.1-0.5,0.1
			c-0.2,0-0.3,0.2-0.5,0.1c-0.3,0-0.4-0.4-0.3-0.6c0.2-0.3,0.6,0,0.8,0c0.1,0,0.2,0,0.4,0C61.8,38.5,61.8,38.7,61.7,38.8 M38.5,23.2
			c0.1-0.2,0.4-0.5,0.7-0.7c0.3-0.2,1.9-1.4,3.3-1.8c0.3-0.1,0.3-0.1,0.5-0.2c0.2-0.1,0.4-0.5-0.1-0.6c-0.5-0.1-0.7,0-0.9,0
			c-0.2,0-0.4-0.1-0.2-0.3c0.2-0.2,0.5-0.4,1.1-0.6c1.3-0.5,3.5-0.8,4.6-0.9c1.4-0.1,1.5-0.1,2.4,0c0.8,0.1,1.5,0.2,1.8,0.3
			c1.6,0.3,3.4,1,5,1.9c0.8,0.5,1.7,1.1,2.4,1.7c2.3,1.8,5,5.2,4.6,12.5c0,0.9-0.1,1.3-0.2,1.5c-0.1,0.2-0.3,0.6-0.5,0.1
			c-0.5-1.5-1.1-4.3-2.5-6.4c-0.2-0.3-0.5-0.3-0.5,0c0,0.1,0.1,1.5,0,1.8c-0.2,1.8,0.3,1.1,1.1,3c0.2,0.6,0.6,1.8,0.6,2.5
			c0,0.2,0,0.4,0.1,0.6c0,0.3-0.1,0.3-0.1,0.3c-0.5,0-1.5-0.3-2-0.3c-0.6,0-4.7-0.1-6.2,0.1c-1.5,0.1-2.4,0.7-3.2,1.4
			c-0.1,0.1-0.3,0.2-0.5,0.3c-0.1,0-0.1,0-0.2,0c-0.1,0-0.2,0-0.4-0.1c-0.4-0.1-0.8-0.1-1.2,0c-0.4,0.1-0.5,0.2-0.9,0
			c-0.6-0.3-1.4-1.6-4.4-1.7c-1.7,0-3.9,0-5.2,0c-0.4,0-0.6,0.1-0.8,0.1c0,0,0-0.1,0-0.1c0-2.4,1.5-1.9,1.7-2.5
			c0.4-1.6,0.6-5.3,3.3-7.6c1.3-1.1,2-1.1,3.2-1.1c1.3,0,2.6,0.3,3.2,0.7c0.5,0.3,0.8,0.4,1,0.3c0.2-0.2,0.7-0.6,1-0.8
			c0.2-0.2,0.1-0.4-0.1-0.6c-0.2-0.2-2.1-2.6-5.1-3.1c-0.7-0.1-1.2-0.2-1.8-0.2c-0.3,0-0.6,0-1.4,0.1c-1.1,0.1-2.6,0.8-3.6,1.1
			C38.3,23.6,38.4,23.3,38.5,23.2 M37.5,56.8c0,1.2,0.7,4.5,4.9,7.6c1.7,1.3,2.5,1.9,2.8,2l0,0c0.1,0.1-0.6,0.1-0.8,0.1
			c-0.3,0-1.4-0.1-2.3,0.1c-0.8,0.1-0.7,0.3-0.8,0.9c-0.1,0.5,0,1.2,0,1.8c0,0.6-0.1,1.1,0.2,1.4c0.3,0.3,0.4,0.3,1.5,0.3
			c1-0.1,3.9-0.1,4.3-0.1c0.4-0.1,0.4,0.1,0.1,0.6c-0.4,0.9-1.9,5.3-4.1,9.4c-0.3,0.6,0.6,0.3,1.3,0.7c1.4,0.7,1.3,0.8,1.7,0.2
			c0.4-0.7,2.4-5.4,2.7-6.8c0-0.2,0.1-0.3,0.2-0.1c0,0.2,0.1,6-0.1,7.9c0,0.1,0,0.2,0.1,0.3c0.1,0.1,0.2,0.1,0.4,0.2c0,0,0,0,0,0
			c0.7-0.2,1.5-0.4,2.2-0.3c0.1,0,0.1,0,0.2,0c0,0,0.1-0.1,0.1-0.1c0.1-0.1,0.1-0.2,0.1-0.3c0,0,0,0,0,0c0-0.2,0.1-0.3,0.1-0.5
			c0-0.1,0-0.2,0-0.3c0-0.1,0-0.2,0-0.4c0-0.1,0-0.3,0-0.4c0-0.2,0-0.3,0-0.5c0-0.2,0-0.4,0-0.6c0-0.2,0-0.1,0-0.3
			c0-0.2,0-0.4,0-0.7c0-0.2,0-0.5,0-0.7c0-0.2,0-0.5,0-0.7c0-0.2,0-0.5-0.1-0.7c0-0.3,0-0.5-0.1-0.8c0-0.3-0.1-0.5-0.1-0.8
			c0-0.3-0.1-0.5-0.1-0.8c0-0.2-0.1-0.5-0.1-0.7c0-0.2-0.1-0.3-0.1-0.6c0-0.2-0.1-0.5-0.2-0.7c-0.1-0.2-0.1-0.4-0.2-0.7
			c-0.1-0.2-0.1-0.3-0.2-0.5c0,0-0.1-0.3-0.1-0.3c0-0.1,0.1,0,0.2,0c0,0,0.1,0,0.1,0c0.7-0.1,2,0,2.3,0c0.3,0,1.8,0.1,2.2,0.2
			c0.4,0,0.9,0.1,0.9-1.1c0-0.3,0-0.5,0-0.8c0,0,0-0.1,0-0.1c0-0.1,0-0.2,0-0.2c0,0,0-0.1,0-0.1c0,0,0-0.1,0-0.1c0,0,0-0.1,0-0.1
			c0-0.1,0-0.1,0-0.2c0,0,0,0,0-0.1c0,0,0-0.1,0-0.1c0,0,0,0,0-0.1c0,0,0-0.1,0-0.1c0,0,0,0,0,0c0,0,0-0.1,0-0.1c0-0.3,0-0.9-0.6-1
			c-0.7-0.2-1.8-0.2-2.9-0.1c-0.1,0-0.2,0-0.1,0l0,0c0.2-0.2,1.7-1,3.5-2.6c1.9-1.7,2.8-2.6,3.4-3.9c0,0,2.1-4.1,2-7.5
			c0-0.7,0.1-0.6,0.5-0.6c0.1,0,0.6,0,0.9-0.2c0.9-0.2,1.7-3.2,1.7-3.2s1.3-4.6,1.7-6.5c0.3-1.7,0.2-2.6-0.8-3.1l-0.2-0.1
			c-0.1,0-0.1-0.1-0.1-0.2c0-0.1,0-0.2,0.1-0.2c0.5-1.7,1.4-3.9,1.2-4.8c0-0.3-0.3-0.3-0.3-0.4c-0.1-0.1-0.5-0.5-0.6-0.8
			c0,0,0-0.1,0-0.1c-0.3-3.3-1.4-7.4-4.9-10.9c0,0-0.2-0.2-0.4-0.3c-0.3-0.3-0.7-0.6-1.1-0.9c-0.9-0.7-1.7-1.2-3.2-2
			c-0.1-0.1-1.3-0.6-2.9-1c-0.2,0-0.3-0.1-0.5-0.1c-0.2-0.1-0.6-0.1-1.1-0.2c-1-0.2-2.2-0.2-3.4-0.2v0c-0.1,0-0.3,0-0.4,0
			c-0.1,0-0.1,0-0.2,0c-0.1,0-0.2,0-0.2,0c-0.3,0-0.6,0.1-0.9,0.1c-0.6,0.1-1.2,0.2-1.5,0.3c-0.4,0.1-1,0.2-1.7,0.4
			c-0.3,0.1-0.6,0.2-0.9,0.3c-0.1,0-0.2,0.1-0.2,0.1c-0.3,0.1-0.6,0.2-0.9,0.3c-0.2,0.1-1.2,0.5-1.4,0.6c-0.1,0-0.2,0.1-0.4,0.2
			c-0.7,0.2-0.8,0.6-0.9,0.8c0,0.1,0,0.3-0.1,0.4c-1,2.1-3.3,2.3-4.3,2.4c-0.2,0-0.5,0-0.4,0.3c0.2,0.6,1.3,1.7,2,1.9
			c0,0.1-0.6,0.2-0.7,0.3c-0.3,0.1-1.4,0-1.4,0c0,0,0,0,0,0c-1.3,0.1-1.6,1-1.8,1.4c0,0.1,0,0.3,0.1,0.4c0.3,0.4,0.6,0.8,0.8,1.3
			c0,0,0,0,0,0c0.1,0.1,0.1,0.3,0.2,0.5c0,0.2,0.2,0.5,0,1c-0.4,0.8-1.5,1.1-1.7,1.9c-0.2,1.2,0.2,1.9,0.6,3.9
			c0.3,1.3,0.6,2.7,0.9,3.3c0,0,0,0.1,0,0.1c-0.1,0-0.3,0.1-0.3,0.1c-0.6,0.2-0.8,0.7-0.9,1.7c-0.2,2.1,1.4,5.4,1.9,8.2
			c0.2,0.9,0.6,2.5,1.3,3.1c0.2,0.1,0.5,0.2,0.7,0.3c0.6,0.1,0.8-0.3,0.8,0.3c0,0.1,0,0.4,0.1,0.6C36.5,54.8,37.5,56.8,37.5,56.8"/>
		<g>
			<defs>
				<path id="SVGID_1_" d="M83.7,14H14.3c-0.8,0-1.4,0.7-1.3,1.4l5.6,70c0,0.4,0.4,0.7,0.8,0.7h59.3c0.4,0,0.7-0.3,0.8-0.7l5.6-70
					C85,14.6,84.4,14,83.7,14z"/>
			</defs>
			<clipPath id="SVGID_2_">
				<use xlink:href="#SVGID_1_"  style="overflow:visible;"/>
			</clipPath>
			<rect x="71.4" y="12.3" class="st1" width="15.6" height="57.6"/>
			<rect x="10.9" y="12.3" class="st1" width="15.6" height="57.6"/>
		</g>
	</g>
</g>
</svg>
